<?xml version="1.0" standalone="no"?>
<!DOCTYPE svg PUBLIC "-//W3C//DTD SVG 20010904//EN"
 "http://www.w3.org/TR/2001/REC-SVG-20010904/DTD/svg10.dtd">
<svg version="1.0" xmlns="http://www.w3.org/2000/svg"
 width="816.000000pt" height="816.000000pt" viewBox="0 0 816.000000 816.000000"
 preserveAspectRatio="xMidYMid meet">
<metadata>
Created by potrace 1.14, written by Peter Selinger 2001-2017
</metadata>
<g transform="translate(0.000000,816.000000) scale(0.100000,-0.100000)"
fill="#000000" stroke="none">
<path d="M5158 8132 c-26 -15 -59 -37 -73 -49 -14 -13 -27 -23 -29 -23 -3 0
-48 -42 -101 -92 -150 -144 -191 -183 -345 -328 -78 -74 -166 -157 -195 -185
-29 -27 -115 -108 -190 -180 -76 -71 -157 -148 -180 -170 -23 -22 -111 -105
-195 -185 -84 -80 -172 -163 -195 -185 -55 -52 -315 -298 -370 -350 -157 -148
-348 -330 -403 -382 -35 -35 -65 -63 -67 -63 -2 0 -37 -33 -78 -72 -41 -40
-112 -109 -159 -153 -107 -101 -343 -324 -413 -390 -29 -27 -119 -113 -201
-190 -245 -231 -290 -278 -325 -335 -18 -30 -34 -59 -35 -65 -2 -5 -9 -30 -16
-55 -14 -44 -16 -140 -4 -190 9 -42 50 -123 76 -154 55 -64 116 -116 136 -116
7 0 14 -4 16 -8 2 -5 37 -27 78 -50 41 -23 98 -56 125 -73 28 -16 58 -32 68
-36 9 -3 17 -9 17 -14 0 -5 5 -9 10 -9 11 0 228 -124 288 -165 92 -63 224
-226 262 -325 7 -19 17 -40 22 -46 5 -7 11 -22 13 -34 2 -13 11 -46 19 -74 26
-91 34 -186 22 -281 -11 -84 -13 -94 -56 -270 -53 -217 -50 -206 -56 -235 -3
-14 -11 -52 -20 -85 -8 -33 -16 -69 -18 -81 -2 -11 -11 -49 -20 -85 -9 -35
-18 -74 -21 -87 -2 -13 -6 -31 -9 -40 -3 -9 -8 -28 -10 -42 -3 -14 -11 -45
-17 -70 -6 -25 -13 -54 -14 -65 -2 -11 -4 -20 -5 -20 -2 0 -5 -11 -13 -50 -3
-11 -14 -59 -26 -107 -11 -48 -23 -98 -25 -110 -3 -13 -10 -43 -17 -68 -6 -25
-13 -56 -15 -70 -3 -14 -12 -52 -21 -85 -8 -33 -17 -69 -20 -80 -7 -32 -15
-69 -17 -80 -1 -5 -5 -16 -9 -22 -5 -7 -6 -13 -4 -13 2 0 -2 -26 -10 -57 -7
-32 -16 -69 -19 -83 -3 -14 -10 -43 -16 -65 -5 -22 -11 -47 -13 -55 -2 -8 -22
-94 -45 -190 -22 -96 -43 -184 -45 -195 -3 -11 -10 -45 -17 -75 -6 -30 -16
-61 -21 -68 -5 -7 -7 -15 -4 -18 3 -3 -1 -27 -8 -52 -8 -25 -12 -48 -10 -51 3
-2 0 -10 -6 -18 -6 -7 -9 -13 -5 -13 3 0 1 -12 -4 -26 -6 -14 -12 -40 -15 -57
-3 -18 -9 -52 -14 -77 -10 -49 -8 -164 4 -193 9 -21 56 -47 86 -47 22 0 103
36 126 55 6 6 25 21 42 34 17 13 58 49 90 80 32 31 118 112 191 181 73 69 165
156 204 193 39 38 125 119 190 180 65 62 145 137 176 167 32 30 111 105 176
167 66 61 147 138 180 170 34 32 128 121 209 198 82 77 170 160 196 185 26 25
109 104 184 175 76 72 156 148 179 170 23 22 61 57 84 77 23 21 39 38 36 38
-4 0 6 10 22 22 16 12 53 46 82 75 29 29 54 53 55 53 2 0 43 39 93 86 49 47
140 134 202 192 63 59 147 139 187 177 41 39 136 129 211 200 295 278 330 312
398 381 109 109 156 218 150 349 -6 111 -55 199 -176 310 -9 8 -19 15 -21 15
-3 0 -35 18 -71 40 -36 22 -70 40 -76 40 -5 0 -10 3 -10 8 0 4 -21 18 -47 32
-27 13 -88 48 -137 77 -49 29 -90 53 -92 53 -2 0 -38 20 -80 45 -41 25 -80 45
-85 45 -5 0 -9 4 -9 8 0 4 -12 15 -27 25 -76 46 -181 173 -238 285 -92 184
-119 373 -79 553 9 42 13 57 29 118 9 35 14 66 11 69 -3 3 -2 10 3 16 6 7 12
23 15 36 2 14 9 45 15 70 7 25 14 56 17 70 3 14 9 41 14 60 5 19 11 46 14 60
4 20 26 114 52 220 2 8 12 53 23 100 10 47 27 114 36 150 10 36 20 81 22 100
3 19 9 40 14 46 5 6 6 13 4 16 -3 3 -1 17 5 32 5 15 12 40 15 55 3 15 20 93
39 172 19 80 37 156 39 169 3 14 10 45 17 70 7 25 14 54 16 65 4 23 29 130 45
190 5 22 11 49 13 60 2 11 20 85 39 165 20 80 38 156 41 170 10 49 15 72 21
90 3 10 8 27 10 37 2 10 18 79 35 153 17 74 33 144 36 155 15 67 18 98 18 168
0 70 -3 80 -27 105 -37 38 -87 40 -149 4z"/>
</g>
</svg>
